<?xml version="1.0" encoding="UTF-8"?>
<!-- Created with Inkscape (http://www.inkscape.org/) -->
<svg width="32.002mm" height="10mm" version="1.1" viewBox="0 0 32.002 10" xmlns="http://www.w3.org/2000/svg">
 <defs>
  <clipPath id="clipPath7">
   <path transform="translate(-6.3564,-27.004)" d="m0 52h354v-52h-354z"/>
  </clipPath>
  <clipPath id="clipPath9">
   <path transform="translate(-14.384,-9.3115)" d="m0 52h354v-52h-354z"/>
  </clipPath>
  <clipPath id="clipPath11">
   <path transform="translate(-14.384,-51.557)" d="m0 52h354v-52h-354z"/>
  </clipPath>
 </defs>
 <g transform="translate(-76.994 -81.492)">
  <g fill="#37a5b7">
   <path d="m85.038 89.472-0.4264 1.8966h-1.6364l2.338-9.6894h1.733l2.2968 9.6894h-1.6368l-0.4124-1.8966zm1.9806-1.4016-0.839-4.0274-0.8526 4.0274z"/>
   <path d="m91.987 83.246v8.1224h-1.6092v-8.1224h-1.6366v-1.567h4.8962v1.567z"/>
   <path d="m98.087 91.369-2.2832-5.6488v5.6488h-1.6092v-9.6894h1.5132l2.2692 5.7312v-5.7174h1.6228v9.6756z"/>
   <path d="m100.81 81.679h1.609v9.6894h-1.609z"/>
   <path d="m107.17 81.679-1.1964 3.0924-1.1966-3.0924h-1.733l2.0632 4.7142-2.1734 4.9752h1.7192l1.3206-3.3672 1.32 3.3672h1.7056l-2.173-4.9752 2.063-4.7142z"/>
  </g>
  <path transform="matrix(.2 0 0 -.2 78.265 86.402)" d="m0 0c0 1.367-1.108 2.475-2.476 2.475s-2.476-1.108-2.476-2.475c0-1.366 1.108-2.475 2.476-2.475s2.476 1.109 2.476 2.475" clip-path="url(#clipPath7)" fill="#f4414d"/>
  <path transform="matrix(.2 0 0 -.2 79.871 89.941)" d="m0 0c-3.651 0-6.624 2.969-6.624 6.619v3.185l-3.92 3.468-3.84-3.469v-3.184c0-7.927 6.452-14.374 14.384-14.374s14.384 6.447 14.384 14.374h-7.76c0-3.65-2.972-6.619-6.624-6.619" clip-path="url(#clipPath9)" fill="#0a2d40"/>
  <path transform="matrix(.2 0 0 -.2 79.871 81.492)" d="m0 0c-7.932 0-14.384-6.449-14.384-14.375v-6.617 0.013l3.84 3.469 3.92-3.469v6.604c0 3.649 2.973 6.619 6.624 6.619 3.652 0 6.624-2.97 6.624-6.619h7.76c0 7.926-6.452 14.375-14.384 14.375" clip-path="url(#clipPath11)" fill="#37a5b7"/>
 </g>
</svg>
